<!DOCTYPE svg PUBLIC "-//W3C//DTD SVG 1.1//EN" "http://www.w3.org/Graphics/SVG/1.1/DTD/svg11.dtd">
<!-- Uploaded to: SVG Repo, www.svgrepo.com, Transformed by: SVG Repo Mixer Tools -->
<svg height="800px" width="800px" version="1.1" id="Layer_1" xmlns="http://www.w3.org/2000/svg" xmlns:xlink="http://www.w3.org/1999/xlink" viewBox="0 0 496.158 496.158" xml:space="preserve" fill="#000000">
<g id="SVGRepo_bgCarrier" stroke-width="0"/>
<g id="SVGRepo_tracerCarrier" stroke-linecap="round" stroke-linejoin="round"/>
<g id="SVGRepo_iconCarrier"> <path style="fill:#edfff1;" d="M496.158,248.085c0-137.022-111.07-248.082-248.076-248.082C111.07,0.003,0,111.063,0,248.085 c0,137.001,111.07,248.07,248.082,248.07C385.088,496.155,496.158,385.086,496.158,248.085z"/> <path style="fill:#808bea;" d="M369.891,107.193h-34.498c-3.175,0-5.749,2.574-5.749,5.749v270.273c0,3.175,2.574,5.749,5.749,5.749 h34.498c3.177,0,5.748-2.574,5.748-5.749V112.942C375.639,109.767,373.067,107.193,369.891,107.193z"/> <path style="fill:#7146af;" d="M391.725,231.394v-34.498c0-3.175-2.574-5.749-5.749-5.749h-66.668c-3.176,0-5.75,2.574-5.75,5.749 v34.498c0,3.175,2.574,5.748,5.75,5.748h66.668C389.15,237.142,391.725,234.569,391.725,231.394z"/> <path style="fill:#E9FCFF;" d="M385.975,241.52h-66.668c-5.585,0-10.129-4.543-10.129-10.126v-34.498 c0-5.584,4.544-10.128,10.129-10.128h66.668c5.585,0,10.128,4.544,10.128,10.128v34.498 C396.103,236.977,391.56,241.52,385.975,241.52z M319.308,195.526c-0.756,0-1.371,0.614-1.371,1.37v34.498 c0,0.756,0.615,1.369,1.371,1.369h66.668c0.756,0,1.371-0.613,1.371-1.369v-34.498c0-0.756-0.615-1.37-1.371-1.37H319.308z"/> <path style="fill:#808bea;" d="M268.088,107.193h-34.497c-3.175,0-5.749,2.574-5.749,5.749v270.273c0,3.175,2.574,5.749,5.749,5.749 h34.497c3.177,0,5.748-2.574,5.748-5.749V112.942C273.836,109.767,271.265,107.193,268.088,107.193z"/> <path style="fill:#7146af;" d="M289.923,333.196v-34.497c0-3.175-2.574-5.749-5.75-5.749h-66.668c-3.176,0-5.75,2.574-5.75,5.749 v34.497c0,3.175,2.574,5.748,5.75,5.748h66.668C287.349,338.944,289.923,336.371,289.923,333.196z"/> <path style="fill:#E9FCFF;" d="M284.173,343.323h-66.668c-5.584,0-10.129-4.543-10.129-10.127v-34.497 c0-5.584,4.545-10.128,10.129-10.128h66.668c5.585,0,10.129,4.544,10.129,10.128v34.497 C294.302,338.78,289.758,343.323,284.173,343.323z M217.505,297.329c-0.756,0-1.371,0.614-1.371,1.37v34.497 c0,0.756,0.615,1.369,1.371,1.369h66.668c0.756,0,1.371-0.613,1.371-1.369v-34.497c0-0.756-0.615-1.37-1.371-1.37H217.505z"/> <path style="fill:#808bea;" d="M166.286,107.193h-34.498c-3.176,0-5.749,2.574-5.749,5.749v270.273c0,3.175,2.573,5.749,5.749,5.749 h34.498c3.174,0,5.748-2.574,5.748-5.749V112.942C172.034,109.767,169.46,107.193,166.286,107.193z"/> <path style="fill:#7146af;" d="M188.119,163.526v-34.498c0-3.175-2.573-5.749-5.749-5.749h-66.668c-3.175,0-5.749,2.574-5.749,5.749 v34.498c0,3.174,2.574,5.748,5.749,5.748h66.668C185.546,169.274,188.119,166.7,188.119,163.526z"/> <path style="fill:#E9FCFF;" d="M182.37,173.652h-66.668c-5.585,0-10.128-4.544-10.128-10.126v-34.498 c0-5.584,4.543-10.127,10.128-10.127h66.668c5.585,0,10.129,4.543,10.129,10.127v34.498 C192.499,169.108,187.955,173.652,182.37,173.652z M115.702,127.658c-0.756,0-1.37,0.614-1.37,1.37v34.498 c0,0.756,0.614,1.369,1.37,1.369h66.668c0.756,0,1.371-0.613,1.371-1.369v-34.498c0-0.756-0.615-1.37-1.371-1.37H115.702z"/> </g>
</svg>